<svg width="336" height="166" viewBox="0 0 336 166" fill="none" xmlns="http://www.w3.org/2000/svg">
<path d="M59.9238 135.916C62.5372 136.209 65.1126 136.776 67.6077 137.606L67.7133 137.643L67.9879 137.738C81.9299 142.714 88.3357 141.779 93.8174 140.099C108.604 135.552 117.403 115.973 141.384 119.76C151.555 121.344 159.735 123.552 166.115 127.999L166.252 128.105C167.166 128.744 168.058 129.399 168.893 130.07C181.366 138.214 193.793 127.598 197.357 125.195C197.621 125.005 197.885 123.494 198.16 123.304L198.382 123.135C214.008 112.117 238.866 100.952 262.81 103.699C304.002 108.405 320.553 155.104 320.553 155.104H12.891C17.6967 144.06 36.9249 133.286 59.9238 135.916Z" fill="#D2E6EF"/>
<path d="M219.913 33.2H99.0298V154.481H219.913V33.2Z" fill="white"/>
<path d="M219.912 14.1229V33.1999H99.0298V14.1229C99.0298 12.3019 99.7531 10.5555 101.041 9.26785C102.328 7.98022 104.074 7.25684 105.895 7.25684H213.052C214.872 7.25824 216.617 7.98224 217.904 9.26972C219.19 10.5572 219.912 12.3028 219.912 14.1229Z" fill="#DF98E7"/>
<path d="M201.181 24.7969C204.322 24.7969 206.868 22.2502 206.868 19.1087C206.868 15.9671 204.322 13.4204 201.181 13.4204C198.04 13.4204 195.493 15.9671 195.493 19.1087C195.493 22.2502 198.04 24.7969 201.181 24.7969Z" fill="#4A2787"/>
<path d="M201.175 21.2425C202.04 21.2425 202.868 20.8992 203.479 20.2881C204.091 19.6769 204.434 18.848 204.434 17.9838V3.25873C204.434 2.39446 204.091 1.56559 203.479 0.954457C202.868 0.343326 202.04 0 201.175 0C200.311 0 199.482 0.343326 198.871 0.954457C198.26 1.56559 197.917 2.39446 197.917 3.25873V17.9838C197.917 18.848 198.26 19.6769 198.871 20.2881C199.482 20.8992 200.311 21.2425 201.175 21.2425Z" fill="#FFF2A8"/>
<path d="M161.045 24.7969C164.186 24.7969 166.733 22.2502 166.733 19.1087C166.733 15.9671 164.186 13.4204 161.045 13.4204C157.904 13.4204 155.357 15.9671 155.357 19.1087C155.357 22.2502 157.904 24.7969 161.045 24.7969Z" fill="#4A2787"/>
<path d="M161.04 21.2425C161.904 21.2425 162.734 20.8993 163.346 20.2884C163.957 19.6774 164.302 18.8485 164.303 17.9838V3.25873C164.302 2.39398 163.957 1.56512 163.346 0.954143C162.734 0.343163 161.904 -1.1321e-06 161.04 0C160.175 0 159.347 0.343326 158.736 0.954457C158.125 1.56559 157.781 2.39446 157.781 3.25873V17.9838C157.781 18.848 158.125 19.6769 158.736 20.2881C159.347 20.8992 160.175 21.2425 161.04 21.2425Z" fill="#FFF2A8"/>
<path d="M120.909 24.7969C124.05 24.7969 126.597 22.2502 126.597 19.1087C126.597 15.9671 124.05 13.4204 120.909 13.4204C117.768 13.4204 115.221 15.9671 115.221 19.1087C115.221 22.2502 117.768 24.7969 120.909 24.7969Z" fill="#4A2787"/>
<path d="M120.909 21.2425C121.773 21.2425 122.602 20.8992 123.213 20.2881C123.824 19.6769 124.168 18.848 124.168 17.9838V3.25873C124.168 2.39446 123.824 1.56559 123.213 0.954457C122.602 0.343326 121.773 0 120.909 0C120.044 -1.1321e-06 119.215 0.343163 118.603 0.954143C117.991 1.56512 117.647 2.39398 117.645 3.25873V17.9838C117.647 18.8485 117.991 19.6774 118.603 20.2884C119.215 20.8993 120.044 21.2425 120.909 21.2425Z" fill="#FFF2A8"/>
<path d="M179.069 75.6797H202.052V52.6942H179.069V75.6797Z" stroke="#F0E0DF" stroke-width="2.21" stroke-miterlimit="10"/>
<path d="M148.487 75.6797H171.47V52.6942H148.487V75.6797Z" stroke="#F0E0DF" stroke-width="2.21" stroke-miterlimit="10"/>
<path d="M117.904 75.6797H140.887V52.6942H117.904V75.6797Z" stroke="#F0E0DF" stroke-width="2.21" stroke-miterlimit="10"/>
<path d="M179.069 104.861H202.052V81.8752H179.069V104.861Z" stroke="#F0E0DF" stroke-width="2.21" stroke-miterlimit="10"/>
<path d="M148.487 104.861H171.47V81.8752H148.487V104.861Z" stroke="#F0E0DF" stroke-width="2.21" stroke-miterlimit="10"/>
<path d="M117.904 104.861H140.887V81.8752H117.904V104.861Z" fill="#4A2787"/>
<path d="M126.211 90.0774L132.585 96.6477" stroke="white" stroke-width="2.02" stroke-miterlimit="10"/>
<path d="M132.585 90.0774L126.211 96.6477" stroke="white" stroke-width="2.02" stroke-miterlimit="10"/>
<path d="M179.069 134.036H202.052V111.05H179.069V134.036Z" stroke="#F0E0DF" stroke-width="2.21" stroke-miterlimit="10"/>
<path d="M148.487 134.036H171.47V111.05H148.487V134.036Z" stroke="#F0E0DF" stroke-width="2.21" stroke-miterlimit="10"/>
<path d="M117.904 134.036H140.887V111.05H117.904V134.036Z" stroke="#F0E0DF" stroke-width="2.21" stroke-miterlimit="10"/>
<path d="M217.837 74.5654H206.652V81.9333H217.837V74.5654Z" fill="#FFCE75"/>
<path d="M219.559 76.4773H204.93C204.13 76.4773 203.363 76.1595 202.798 75.594C202.232 75.0284 201.915 74.2613 201.915 73.4615C201.914 73.065 201.992 72.6723 202.143 72.3058C202.294 71.9393 202.516 71.6062 202.796 71.3256C203.076 71.045 203.409 70.8224 203.775 70.6705C204.141 70.5186 204.534 70.4404 204.93 70.4404H219.559C220.36 70.4404 221.128 70.7587 221.695 71.3253C222.261 71.8918 222.579 72.6603 222.579 73.4615C222.578 74.2618 222.259 75.0289 221.693 75.5943C221.126 76.1597 220.359 76.4773 219.559 76.4773Z" fill="#FFF2A8"/>
<path d="M185.126 85.7418L178.819 92.0496L183.267 96.4975L189.574 90.1897L185.126 85.7418Z" fill="#FFCE75"/>
<path d="M187.112 85.4874L178.303 94.2971C177.877 94.7231 177.298 94.9624 176.695 94.9624C176.092 94.9624 175.514 94.7231 175.087 94.2971C174.661 93.8703 174.422 93.2919 174.422 92.6888C174.422 92.0858 174.661 91.5074 175.087 91.0806L183.896 82.2709C184.323 81.8449 184.901 81.6056 185.504 81.6056C186.107 81.6056 186.685 81.8449 187.112 82.2709C187.538 82.6977 187.777 83.2761 187.777 83.8792C187.777 84.4822 187.538 85.0606 187.112 85.4874Z" fill="#FFF2A8"/>
<path d="M212.112 154.38C232.993 154.38 249.919 137.452 249.919 116.57C249.919 95.6873 232.993 78.7588 212.112 78.7588C191.232 78.7588 174.306 95.6873 174.306 116.57C174.306 137.452 191.232 154.38 212.112 154.38Z" fill="#8739B3"/>
<path d="M212.112 152.347C231.87 152.347 247.886 136.329 247.886 116.57C247.886 96.8105 231.87 80.7924 212.112 80.7924C192.355 80.7924 176.339 96.8105 176.339 116.57C176.339 136.329 192.355 152.347 212.112 152.347Z" fill="#4A2787"/>
<path d="M212.112 148.307C229.638 148.307 243.846 134.098 243.846 116.57C243.846 99.0418 229.638 84.8326 212.112 84.8326C194.586 84.8326 180.379 99.0418 180.379 116.57C180.379 134.098 194.586 148.307 212.112 148.307Z" fill="#F6F6F6"/>
<g opacity="0.71">
<path opacity="0.71" d="M177.4 91.4611L225.495 166L247.226 147.314L199.639 80.5969L177.4 91.4611Z" fill="white"/>
<path opacity="0.71" d="M203.029 73.5036L251.129 148.043L253.922 138.699L206.335 71.9825L203.029 73.5036Z" fill="white"/>
</g>
<path d="M212.271 91.9839C212.06 91.9826 211.858 91.8981 211.709 91.7488C211.559 91.5996 211.475 91.3975 211.473 91.1864V89.3115C211.496 89.1171 211.589 88.9378 211.735 88.8077C211.881 88.6775 212.07 88.6056 212.266 88.6056C212.461 88.6056 212.65 88.6775 212.796 88.8077C212.942 88.9378 213.035 89.1171 213.058 89.3115V91.1864C213.058 91.3961 212.975 91.5974 212.828 91.7467C212.681 91.8959 212.481 91.9812 212.271 91.9839Z" fill="#8054FF"/>
<path d="M212.271 145.011C212.059 145.01 211.856 144.924 211.707 144.774C211.557 144.624 211.473 144.42 211.473 144.208V142.339C211.461 142.227 211.471 142.114 211.505 142.006C211.539 141.899 211.595 141.8 211.67 141.716C211.745 141.632 211.837 141.565 211.939 141.519C212.042 141.473 212.153 141.449 212.266 141.449C212.378 141.449 212.489 141.473 212.592 141.519C212.694 141.565 212.786 141.632 212.861 141.716C212.936 141.8 212.992 141.899 213.026 142.006C213.06 142.114 213.071 142.227 213.058 142.339V144.208C213.059 144.419 212.977 144.621 212.83 144.772C212.682 144.922 212.481 145.008 212.271 145.011Z" fill="#8054FF"/>
<path d="M194.189 99.4733C193.977 99.4728 193.774 99.3894 193.624 99.2409L192.303 97.9153C192.153 97.7654 192.069 97.5621 192.069 97.3501C192.069 97.1382 192.153 96.9349 192.303 96.785C192.453 96.6351 192.656 96.5509 192.868 96.5509C193.08 96.5509 193.284 96.6351 193.433 96.785L194.759 98.1107C194.833 98.1848 194.892 98.2728 194.933 98.3698C194.973 98.4668 194.994 98.5708 194.994 98.6758C194.994 98.7808 194.973 98.8848 194.933 98.9818C194.892 99.0788 194.833 99.1668 194.759 99.2409C194.607 99.3907 194.402 99.4742 194.189 99.4733Z" fill="#8054FF"/>
<path d="M231.679 136.967C231.574 136.968 231.47 136.948 231.373 136.908C231.276 136.868 231.188 136.809 231.114 136.735L229.799 135.409C229.649 135.259 229.565 135.056 229.565 134.844C229.565 134.632 229.649 134.429 229.799 134.279C229.948 134.129 230.152 134.045 230.364 134.045C230.576 134.045 230.779 134.129 230.929 134.279L232.254 135.604C232.329 135.679 232.388 135.767 232.428 135.864C232.468 135.961 232.489 136.065 232.489 136.17C232.489 136.275 232.468 136.379 232.428 136.476C232.388 136.572 232.329 136.661 232.254 136.735C232.179 136.81 232.089 136.87 231.99 136.91C231.891 136.95 231.785 136.969 231.679 136.967Z" fill="#8054FF"/>
<path d="M192.863 136.967C192.758 136.965 192.654 136.943 192.558 136.9C192.462 136.857 192.375 136.796 192.303 136.719C192.229 136.645 192.17 136.557 192.129 136.46C192.089 136.363 192.068 136.259 192.068 136.154C192.068 136.049 192.089 135.945 192.129 135.848C192.17 135.751 192.229 135.663 192.303 135.589L193.629 134.263C193.779 134.113 193.982 134.029 194.194 134.029C194.406 134.029 194.609 134.113 194.759 134.263C194.909 134.413 194.993 134.616 194.993 134.828C194.993 135.04 194.909 135.244 194.759 135.393L193.428 136.719C193.356 136.796 193.268 136.858 193.171 136.901C193.074 136.944 192.969 136.966 192.863 136.967Z" fill="#8054FF"/>
<path d="M230.353 99.4733C230.142 99.4645 229.943 99.3735 229.799 99.2198C229.724 99.1457 229.665 99.0576 229.625 98.9607C229.585 98.8637 229.564 98.7597 229.564 98.6547C229.564 98.5497 229.585 98.4457 229.625 98.3487C229.665 98.2517 229.724 98.1636 229.799 98.0895L231.124 96.7639C231.274 96.614 231.477 96.5298 231.689 96.5298C231.901 96.5298 232.104 96.614 232.254 96.7639C232.404 96.9138 232.488 97.117 232.488 97.329C232.488 97.541 232.404 97.7442 232.254 97.8941L230.918 99.2198C230.846 99.2976 230.758 99.3601 230.661 99.4037C230.564 99.4472 230.459 99.4709 230.353 99.4733Z" fill="#8054FF"/>
<path d="M186.7 117.557H184.825C184.714 117.57 184.601 117.559 184.493 117.525C184.386 117.492 184.287 117.435 184.203 117.361C184.119 117.286 184.052 117.194 184.006 117.091C183.96 116.989 183.936 116.878 183.936 116.765C183.936 116.653 183.96 116.541 184.006 116.439C184.052 116.336 184.119 116.244 184.203 116.17C184.287 116.095 184.386 116.039 184.493 116.005C184.601 115.971 184.714 115.96 184.825 115.973H186.7C186.894 115.995 187.074 116.088 187.204 116.235C187.334 116.381 187.406 116.569 187.406 116.765C187.406 116.961 187.334 117.15 187.204 117.296C187.074 117.442 186.894 117.535 186.7 117.557Z" fill="#8054FF"/>
<path d="M239.716 117.557H237.842C237.73 117.57 237.617 117.559 237.509 117.525C237.402 117.492 237.303 117.435 237.219 117.361C237.135 117.286 237.068 117.194 237.022 117.091C236.976 116.989 236.953 116.878 236.953 116.765C236.953 116.653 236.976 116.541 237.022 116.439C237.068 116.336 237.135 116.244 237.219 116.17C237.303 116.095 237.402 116.039 237.509 116.005C237.617 115.971 237.73 115.96 237.842 115.973H239.716C239.828 115.96 239.941 115.971 240.048 116.005C240.156 116.039 240.255 116.095 240.338 116.17C240.422 116.244 240.49 116.336 240.536 116.439C240.582 116.541 240.605 116.653 240.605 116.765C240.605 116.878 240.582 116.989 240.536 117.091C240.49 117.194 240.422 117.286 240.338 117.361C240.255 117.435 240.156 117.492 240.048 117.525C239.941 117.559 239.828 117.57 239.716 117.557Z" fill="#8054FF"/>
<path d="M214.177 116.459H210.364V99.9222C210.364 99.4165 210.565 98.9315 210.923 98.574C211.28 98.2164 211.765 98.0155 212.271 98.0155C212.521 98.0148 212.77 98.0636 213.001 98.1592C213.233 98.2548 213.443 98.3952 213.62 98.5724C213.798 98.7496 213.938 98.9601 214.034 99.1917C214.129 99.4233 214.178 99.6716 214.177 99.9222V116.459Z" fill="#8054FF"/>
<path d="M212.271 120.832C214.686 120.832 216.644 118.874 216.644 116.459C216.644 114.044 214.686 112.086 212.271 112.086C209.856 112.086 207.898 114.044 207.898 116.459C207.898 118.874 209.856 120.832 212.271 120.832Z" fill="#4A2787"/>
<path d="M81.7556 77.1426L88.6632 107.617C88.8774 109.029 88.7208 110.471 88.2087 111.804C87.6967 113.136 86.8469 114.313 85.7427 115.217L65.1151 131.347L65.4953 116.496L75.7986 108.082L65.1151 76.3081L81.7556 77.1426Z" fill="#381772"/>
<path d="M55.0653 131.474L64.9936 126.277L61.0751 120.742L50.2859 126.61L53.7292 130.972L55.0653 131.474Z" fill="#F8B79F"/>
<path d="M52.6994 124.281C52.6994 124.281 54.3735 130.434 59.2056 130.091L61.0698 144.752L46.811 126.684L52.6994 124.281Z" fill="#181F42"/>
<path d="M61.0771 144.746L46.8159 126.661L45.1075 128.008L59.3687 146.094L61.0771 144.746Z" fill="white"/>
<path d="M59.4538 132.003C58.5487 131.761 57.6109 131.667 56.6759 131.723" stroke="white" stroke-width="1.5" stroke-linecap="round" stroke-linejoin="round"/>
<path d="M59.8657 134.152C58.9612 133.908 58.0229 133.813 57.0879 133.872" stroke="white" stroke-width="1.5" stroke-linecap="round" stroke-linejoin="round"/>
<path d="M60.2777 136.296C59.3732 136.052 58.4349 135.957 57.4998 136.016" stroke="white" stroke-width="1.5" stroke-linecap="round" stroke-linejoin="round"/>
<path d="M63.9268 149.426L64.9355 138.409L58.16 138.06L57.1513 150.166H62.7069L63.9268 149.426Z" fill="#F8B79F"/>
<path d="M56.2799 146.828C56.2799 146.828 62.1524 149.321 64.8721 145.312L77.5466 152.923H54.5213L56.2799 146.828Z" fill="#181F42"/>
<path d="M77.5413 152.923H54.5108V155.099H77.5413V152.923Z" fill="white"/>
<path d="M66.5304 146.305C65.7789 146.866 65.1242 147.545 64.5922 148.317" stroke="white" stroke-width="1.5" stroke-linecap="round" stroke-linejoin="round"/>
<path d="M68.4685 147.314C67.7177 147.873 67.063 148.551 66.5304 149.321" stroke="white" stroke-width="1.5" stroke-linecap="round" stroke-linejoin="round"/>
<path d="M70.4119 148.338C69.6586 148.896 69.0021 149.574 68.4685 150.345" stroke="white" stroke-width="1.5" stroke-linecap="round" stroke-linejoin="round"/>
<path d="M58.9468 76.3979L55.8363 140.669H67.6235L76.2105 76.6092L58.9468 76.3979Z" fill="#DF98E7"/>
<path d="M81.7556 77.1426L74.6103 88.3448L73.1211 76.8627L81.7556 77.1426Z" fill="#DF98E7"/>
<path d="M112.391 66.2576L105.351 66.8069L106.613 59.7349L113.965 60.3528L112.391 66.2576Z" fill="#F8B79F"/>
<path d="M118.316 65.914C117.576 66.549 116.664 66.9503 115.696 67.0671C114.727 67.184 113.746 67.0112 112.876 66.5705C112.006 66.1299 111.286 65.4411 110.808 64.5914C110.329 63.7417 110.113 62.769 110.186 61.7965C110.26 60.8239 110.621 59.895 111.222 59.1273C111.824 58.3595 112.639 57.7873 113.566 57.483C114.492 57.1786 115.488 57.1558 116.428 57.4175C117.367 57.6791 118.208 58.2134 118.844 58.9528C119.697 59.9462 120.12 61.2374 120.021 62.5427C119.922 63.848 119.309 65.0606 118.316 65.914Z" fill="#F8B79F"/>
<path d="M115.359 57.2363C115.359 57.2363 114.466 55.1765 112.375 56.7082C110.284 58.2398 108.43 61.3718 111.356 65.3805L115.359 57.2363Z" fill="#F8B79F"/>
<path d="M115.359 57.2099L121.031 55.7839C121.258 55.7103 121.506 55.7275 121.721 55.8317C121.937 55.936 122.104 56.1194 122.187 56.3437C122.255 56.5341 122.249 56.7433 122.17 56.9293C122.091 57.1154 121.944 57.2646 121.759 57.3472L116.003 59.9246L115.359 57.2099Z" fill="#F8B79F"/>
<path d="M85.8062 47.3704L95.1324 62.0902C95.7668 63.2275 95.9463 64.5632 95.6346 65.8276C95.323 67.0921 94.5433 68.1913 93.4531 68.9034C92.3132 69.646 90.9258 69.9073 89.594 69.6302C88.2621 69.3532 87.094 68.5602 86.3448 67.4246L76.0679 53.2699C75.3455 52.1741 75.0235 50.8625 75.1563 49.5566C75.2891 48.2508 75.8685 47.0308 76.7967 46.1028C77.4208 45.4795 78.1809 45.0096 79.0174 44.7301C79.8539 44.4505 80.7438 44.369 81.6172 44.4918C82.4905 44.6147 83.3235 44.9387 84.0504 45.4382C84.7773 45.9377 85.3783 46.5991 85.8062 47.3704Z" fill="#4A2787"/>
<path d="M82.8963 62.7663L83.4455 54.7119L85.4417 66.2839L82.8963 62.7663Z" fill="#2C1654"/>
<path d="M90.2791 60.6167L110.754 58.2083L110.69 67.5619L91.6469 70.0179C90.9441 70.1544 90.2196 70.1304 89.5274 69.9476C88.8352 69.7649 88.1932 69.4281 87.6493 68.9624C87.1055 68.4967 86.6739 67.9142 86.3867 67.2583C86.0996 66.6024 85.9643 65.8902 85.9909 65.1747C86.0328 64.0245 86.4905 62.9285 87.2792 62.0903C88.0678 61.252 89.1337 60.7284 90.2791 60.6167Z" fill="#4A2787"/>
<path d="M54.8435 88.345C54.8435 88.345 57.1249 88.5299 56.7552 85.9155C56.3856 83.3011 54.4527 80.1427 49.4463 80.8505L54.8435 88.345Z" fill="#F8B79F"/>
<path d="M38.3244 109.276H61.3074V86.2902H38.3244V109.276Z" fill="#4A2787"/>
<path d="M39.3859 109.276H62.3689V86.2902H39.3859V109.276Z" fill="#4A2787"/>
<path d="M45.6333 86.845C45.4176 85.874 45.4946 84.8609 45.8547 83.9337C46.2148 83.0066 46.8418 82.207 47.6563 81.6363C48.4709 81.0656 49.4364 80.7493 50.4307 80.7274C51.425 80.7056 52.4034 80.9791 53.2422 81.5135C54.0811 82.0479 54.7426 82.8191 55.143 83.7295C55.5435 84.64 55.665 85.6488 55.4921 86.6283C55.3193 87.6078 54.8598 88.514 54.1718 89.2323C53.4839 89.9506 52.5984 90.4487 51.6273 90.6636C50.983 90.8069 50.3168 90.8217 49.6667 90.7073C49.0167 90.5929 48.3956 90.3515 47.8389 89.9969C47.2822 89.6422 46.8009 89.1813 46.4224 88.6405C46.044 88.0997 45.7758 87.4895 45.6333 86.845Z" fill="#F8B79F"/>
<path d="M55.4455 61.8898L55.2184 82.488L46.1878 82.0654L45.9449 62.0324C45.8986 61.3176 46.0143 60.6016 46.2836 59.9379C46.5528 59.2741 46.9686 58.6798 47.4998 58.1994C48.031 57.7189 48.6639 57.3647 49.3512 57.1633C50.0384 56.9618 50.7624 56.9184 51.4689 57.036C52.6081 57.224 53.64 57.8202 54.3718 58.7134C55.1036 59.6067 55.4852 60.7357 55.4455 61.8898Z" fill="#4A2787"/>
<path d="M67.0427 53.2699L54.5847 65.4175C53.6036 66.2734 52.3347 66.7258 51.0334 66.6837C49.7322 66.6415 48.4952 66.108 47.5715 65.1904C46.6072 64.2304 46.062 62.9277 46.0551 61.5669C46.0481 60.2062 46.58 58.898 47.5345 57.9282L59.2215 44.9567C60.1431 44.0223 61.3591 43.4348 62.6638 43.2933C63.9685 43.1519 65.2821 43.4652 66.3825 44.1803C67.1251 44.6593 67.7462 45.3043 68.1968 46.0645C68.6475 46.8246 68.9154 47.679 68.9794 48.5604C69.0434 49.4418 68.9017 50.326 68.5657 51.1433C68.2296 51.9606 67.7082 52.6886 67.0427 53.2699Z" fill="#4A2787"/>
<path d="M80.9475 44.4288L63.2297 43.2616C61.6454 43.156 58.7831 46.0608 58.9521 47.6506V76.3982L81.7661 77.1429L84.0739 47.9886C84.1304 47.1022 83.8329 46.2295 83.2468 45.5621C82.6607 44.8947 81.8338 44.4872 80.9475 44.4288Z" fill="#4A2787"/>
<path d="M58.9468 61.1607L64.0905 56.1379L58.9468 69.738V61.1607Z" fill="#2C1654"/>
<path d="M78.0588 32.5345C77.9906 33.1645 78.1744 33.7959 78.5703 34.2908C78.9661 34.7856 79.5417 35.1036 80.1713 35.1753C80.4832 35.1983 80.7967 35.1593 81.0935 35.0606C81.3903 34.9619 81.6647 34.8055 81.9008 34.6003C82.137 34.395 82.3301 34.1451 82.4693 33.8649C82.6084 33.5847 82.6907 33.2798 82.7114 32.9676C82.7582 32.651 82.7399 32.3281 82.6575 32.0189C82.5751 31.7096 82.4304 31.4204 82.2323 31.1691C82.0342 30.9177 81.7868 30.7094 81.5054 30.5571C81.2239 30.4047 80.9143 30.3114 80.5956 30.283C80.2768 30.2545 79.9556 30.2915 79.6516 30.3916C79.3477 30.4917 79.0673 30.6528 78.8278 30.8651C78.5883 31.0774 78.3947 31.3364 78.2589 31.6262C78.123 31.916 78.0477 32.2305 78.0377 32.5504L78.0588 32.5345Z" fill="#E6849A"/>
<path d="M76.6964 38.2227L76.5908 44.0325C76.5538 46.0606 75.3233 47.1222 73.3852 47.0694C71.7322 47.0219 69.9314 46.1821 70.037 44.3916L70.6338 35.2968L76.6964 38.2227Z" fill="#F8B79F"/>
<path d="M76.6488 42.0676C76.6488 42.0676 71.9276 42.3793 70.5598 37.0449C70.132 35.3653 76.728 37.6258 76.728 37.6258L76.6488 42.0676Z" fill="#312725"/>
<path d="M74.9272 39.876C78.2331 39.9447 81.0109 37.3039 81.1588 34.5205L81.4387 28.7108C81.5504 27.0581 81.0177 25.4263 79.9523 24.1579C78.8869 22.8896 77.3717 22.0832 75.7246 21.9081C72.2709 21.5965 68.6217 24.1845 68.3312 27.7495L68.1728 32.2917C68.0854 34.1876 68.7432 36.0425 70.0054 37.4598C71.2676 38.877 73.0341 39.7443 74.9272 39.876Z" fill="#F8B79F"/>
<path d="M77.7209 31.9644L77.8793 33.871L77.0608 33.8868" stroke="#312725" stroke-width="0.6" stroke-linecap="round" stroke-linejoin="round"/>
<path d="M74.135 28.1085C74.135 28.1085 75.4923 28.0134 75.4975 28.5838C75.4975 28.5838 75.4975 28.9694 74.304 29.0275C73.1105 29.0856 72.82 28.9852 72.7197 28.6208C72.6194 28.2564 73.4802 28.0979 74.135 28.1085Z" fill="#312725"/>
<path d="M79.8174 29.4449C79.8174 29.4449 78.7031 29.3023 78.6028 29.8358C78.6028 29.8358 78.5447 30.2002 79.5217 30.2953C80.4987 30.3903 80.8208 30.2953 80.9159 29.9836C81.0109 29.672 80.3455 29.4608 79.8174 29.4449Z" fill="#312725"/>
<path d="M78.9408 31.6155C78.9389 31.7276 78.97 31.8378 79.0303 31.9323C79.0906 32.0268 79.1774 32.1014 79.2799 32.1469C79.3824 32.1923 79.4959 32.2066 79.6065 32.1878C79.717 32.1691 79.8195 32.1182 79.9013 32.0415C79.983 31.9648 80.0404 31.8657 80.0662 31.7565C80.0919 31.6474 80.085 31.5332 80.0462 31.428C80.0074 31.3228 79.9384 31.2314 79.848 31.1652C79.7575 31.0989 79.6496 31.0609 79.5376 31.0556C79.3844 31.0514 79.2357 31.1078 79.1239 31.2127C79.0122 31.3175 78.9463 31.4623 78.9408 31.6155Z" fill="#312725"/>
<path d="M73.966 31.3513C73.9641 31.4634 73.9952 31.5736 74.0555 31.6681C74.1158 31.7626 74.2026 31.8373 74.3051 31.8827C74.4076 31.9282 74.5212 31.9424 74.6317 31.9236C74.7422 31.9049 74.8448 31.854 74.9265 31.7773C75.0083 31.7006 75.0656 31.6015 75.0914 31.4924C75.1172 31.3833 75.1102 31.269 75.0714 31.1638C75.0326 31.0586 74.9636 30.9672 74.8732 30.901C74.7827 30.8348 74.6748 30.7967 74.5628 30.7915C74.4096 30.7872 74.2609 30.8436 74.1491 30.9485C74.0374 31.0534 73.9715 31.1982 73.966 31.3513Z" fill="#312725"/>
<path d="M75.3339 34.7106C75.5604 34.9824 75.8588 35.185 76.195 35.2952C76.5312 35.4054 76.8916 35.4188 77.235 35.3338" stroke="#312725" stroke-width="0.6" stroke-linecap="round" stroke-linejoin="round"/>
<path d="M80.0762 19.0559C78.8087 18.5277 75.582 17.9098 74.8691 20.7671C71.6529 20.5242 66.5356 20.5823 66.0234 23.3709C65.2682 27.4642 68.1727 31.5257 68.1727 31.5257L68.9913 31.9429C68.9913 31.9429 71.0667 30.8602 70.5334 25.9589C70.5334 25.9589 77.9638 27.7494 81.4492 25.8639C84.9347 23.9783 83.8785 20.6932 80.0762 19.0559Z" fill="#312725"/>
<path d="M65.1203 32.0961C65.094 32.5522 65.2026 33.0059 65.4327 33.4006C65.6627 33.7953 66.004 34.1134 66.4138 34.3151C66.8237 34.5169 67.2839 34.5934 67.7369 34.535C68.19 34.4767 68.6158 34.2861 68.9611 33.987C69.3064 33.688 69.556 33.2938 69.6785 32.8537C69.8011 32.4137 69.7913 31.9472 69.6502 31.5127C69.5092 31.0782 69.2432 30.6949 68.8856 30.4107C68.5279 30.1265 68.0945 29.954 67.6394 29.9148C67.0167 29.8726 66.4026 30.0782 65.9308 30.4868C65.459 30.8953 65.1677 31.4738 65.1203 32.0961Z" fill="#F8B79F"/>
<path d="M68.1991 32.9517C68.1991 32.9517 68.347 31.2193 66.7205 31.3672" stroke="#312725" stroke-width="0.6" stroke-linecap="round" stroke-linejoin="round"/>
<path d="M67.7979 43.5623L78.4022 44.2594C78.4022 44.2594 78.7349 47.9143 74.0189 47.666C68.7273 47.3808 67.7979 43.5623 67.7979 43.5623Z" fill="#F8B79F"/>
<path d="M289.527 131.971L279.076 127.096L282.846 121.218L294.211 126.742L290.879 131.39L289.527 131.971Z" fill="#F8B79F"/>
<path d="M291.618 124.46C291.618 124.46 290.182 130.867 285.202 130.74L283.977 145.893L297.781 126.631L291.618 124.46Z" fill="#181F42"/>
<path d="M287.231 146.838L300.974 127.642L299.161 126.343L285.417 145.539L287.231 146.838Z" fill="white"/>
<path d="M285.038 132.721C285.956 132.427 286.916 132.286 287.879 132.303" stroke="white" stroke-width="1.55" stroke-linecap="round" stroke-linejoin="round"/>
<path d="M284.721 134.944C285.64 134.654 286.599 134.513 287.562 134.527" stroke="white" stroke-width="1.55" stroke-linecap="round" stroke-linejoin="round"/>
<path d="M284.394 137.168C285.312 136.876 286.272 136.735 287.235 136.751" stroke="white" stroke-width="1.55" stroke-linecap="round" stroke-linejoin="round"/>
<path d="M265.266 68.3224C265.266 68.3224 258.432 93.8166 257.429 98.8393C256.425 103.862 254.413 113.918 258.633 117.541C262.852 121.165 279.076 129.853 279.076 129.853L285.038 119.142L275.379 113.332L265.266 68.3224Z" fill="#243B77"/>
<path d="M274.476 149.395L272.348 138.055L279.319 137.696L281.452 150.15H275.733L274.476 149.395Z" fill="#F8B79F"/>
<path d="M281.796 146.717C281.796 146.717 275.743 149.284 272.95 145.169L259.9 152.991H283.596L281.796 146.717Z" fill="#181F42"/>
<path d="M259.927 155.231H283.623V152.991H259.927V155.231Z" fill="white"/>
<path d="M271.249 146.184C272.023 146.759 272.697 147.456 273.246 148.249" stroke="white" stroke-width="1.55" stroke-linecap="round" stroke-linejoin="round"/>
<path d="M269.253 147.213C270.025 147.792 270.699 148.491 271.249 149.284" stroke="white" stroke-width="1.55" stroke-linecap="round" stroke-linejoin="round"/>
<path d="M267.257 148.249C268.03 148.824 268.704 149.521 269.253 150.314" stroke="white" stroke-width="1.55" stroke-linecap="round" stroke-linejoin="round"/>
<path d="M265.266 68.3224L264.585 106.778C264.564 108.158 264.674 109.537 264.912 110.897L270.626 140.553H282.609L279.271 107.105C279.414 100.952 281.458 94.0648 282.218 86.5597C282.218 86.5597 284.563 72.6427 278.136 68.3911L265.266 68.3224Z" fill="#4A2787"/>
<path d="M257.614 63.0461L238.074 55.8895L235.798 59.6975L254.857 69.7959C255.579 70.0718 256.362 70.1506 257.124 70.0243C257.887 69.8979 258.602 69.571 259.196 69.0769C259.791 68.5829 260.243 67.9396 260.507 67.2129C260.771 66.4863 260.837 65.7026 260.698 64.9422C260.428 63.4105 259.082 63.5689 257.614 63.0461Z" fill="#F8B79F"/>
<path d="M235.666 52.9901C235.494 52.8074 235.277 52.6721 235.038 52.5972C234.798 52.5223 234.544 52.5103 234.298 52.5623C234.157 52.5916 234.025 52.6557 233.915 52.7488C233.805 52.8418 233.72 52.9609 233.668 53.0952C233.615 53.2295 233.597 53.3747 233.615 53.5178C233.633 53.6608 233.686 53.7971 233.77 53.9144L234.05 54.3739C233.427 54.6168 232.128 54.6749 229.762 52.2612C229.577 52.0668 229.332 51.9402 229.067 51.9019C228.801 51.8636 228.531 51.9157 228.299 52.05C228.148 52.1532 228.041 52.309 227.999 52.4867C227.957 52.6644 227.983 52.8515 228.072 53.0112L228.103 53.0588C227.948 53.0028 227.781 52.9827 227.617 53.0001C227.452 53.0175 227.293 53.0718 227.153 53.1591C227.002 53.2633 226.895 53.4204 226.854 53.5993C226.813 53.7782 226.84 53.966 226.931 54.1256C226.953 54.1719 226.98 54.2161 227.01 54.2577C226.852 54.2743 226.7 54.3287 226.567 54.4161C226.416 54.5194 226.309 54.6755 226.268 54.8535C226.227 55.0315 226.255 55.2185 226.345 55.3774C226.395 55.4814 226.463 55.5761 226.545 55.6573L226.641 55.7471L226.593 55.7735C226.444 55.8783 226.339 56.0344 226.298 56.2117C226.257 56.3891 226.283 56.5753 226.371 56.7347C226.423 56.841 226.493 56.9375 226.577 57.02C227.17 57.6286 227.819 58.1803 228.515 58.6678H228.547C228.835 58.8598 229.133 59.0361 229.439 59.196C230.807 59.9935 233.738 59.328 236.257 59.7241L238.227 56.027L235.666 52.9901Z" fill="#F8B79F"/>
<path d="M228.744 66.2975L238.193 44.7087L216.607 35.2589L207.158 56.8477L228.744 66.2975Z" fill="#BFBFBF"/>
<path d="M235.988 53.3808L234.071 51.1573C233.998 51.0723 233.907 51.0042 233.805 50.9575C233.703 50.9108 233.592 50.8866 233.479 50.8866C233.367 50.8866 233.256 50.9108 233.154 50.9575C233.052 51.0042 232.961 51.0723 232.888 51.1573C232.787 51.2743 232.724 51.4185 232.705 51.5717C232.686 51.725 232.713 51.8803 232.782 52.0182L233.749 53.9248C233.529 54.7614 233.518 55.6391 233.717 56.4808C233.916 57.3225 234.319 58.1025 234.89 58.7522L235.988 53.3808Z" fill="#F8B79F"/>
<path d="M266.275 63.4529L259.161 69.1147C258.461 69.6764 257.605 70.0075 256.709 70.0623C255.814 70.1172 254.923 69.8932 254.16 69.4211C251.958 68.0637 250.611 66.8067 252.195 64.7627L260.011 56.8403L266.275 63.4529Z" fill="#F8B79F"/>
<path d="M271.788 56.6501C271.788 56.6501 270.843 61.319 265.229 65.5601L256.573 57.3895L263.597 49.5728L271.788 56.6501Z" fill="#381772"/>
<path d="M285.292 62.8243L300.337 81.7904L303.743 79.5299C303.743 79.5299 295.109 63.4581 291.101 58.4036C290.619 57.7986 289.984 57.3329 289.262 57.0544C288.541 56.7759 287.758 56.6945 286.994 56.8187C286.231 56.943 285.514 57.2683 284.918 57.7612C284.321 58.2542 283.867 58.897 283.602 59.6237C283.068 61.0867 284.293 61.6254 285.292 62.8243Z" fill="#F8B79F"/>
<path d="M301.092 85.6196C301.155 85.8559 301.277 86.0723 301.448 86.2479C301.618 86.4236 301.83 86.5528 302.064 86.6231C302.198 86.6666 302.341 86.6757 302.479 86.6495C302.618 86.6234 302.748 86.5628 302.856 86.4733C302.965 86.3839 303.05 86.2685 303.103 86.1378C303.155 86.007 303.174 85.8652 303.157 85.7252V85.1971C303.802 85.2868 304.937 85.8361 305.851 88.9839C305.918 89.2358 306.068 89.4577 306.277 89.6138C306.486 89.77 306.741 89.8513 307.002 89.8448C307.178 89.8241 307.34 89.7396 307.458 89.6072C307.576 89.4748 307.641 89.3038 307.641 89.1266C307.641 89.1266 307.641 89.0896 307.641 89.0684C307.747 89.1902 307.88 89.2859 308.03 89.3482C308.179 89.4105 308.34 89.4376 308.502 89.4276C308.678 89.4079 308.84 89.3235 308.957 89.1907C309.074 89.058 309.138 88.8864 309.135 88.7093C309.141 88.6584 309.141 88.607 309.135 88.5561C309.279 88.6168 309.434 88.6422 309.59 88.6301C309.766 88.6105 309.929 88.5263 310.047 88.3936C310.165 88.261 310.23 88.0893 310.229 87.9118C310.232 87.7976 310.218 87.6836 310.186 87.5738C310.186 87.5315 310.16 87.4945 310.149 87.4523H310.197C310.374 87.4339 310.537 87.35 310.656 87.2171C310.774 87.0842 310.838 86.9119 310.836 86.734C310.84 86.6215 310.825 86.5092 310.794 86.4013C310.569 85.6047 310.272 84.8304 309.906 84.0879V84.0562C309.746 83.7533 309.57 83.4589 309.378 83.1742C308.581 81.8591 305.766 81.0616 303.802 79.5458L300.337 81.7904L301.092 85.6196Z" fill="#F8B79F"/>
<path d="M283.047 51.1204L289.913 57.1255C290.585 57.7192 291.059 58.5053 291.27 59.3774C291.48 60.2494 291.418 61.1652 291.09 62.0004C290.14 64.4035 289.141 65.951 286.865 64.7521L277.655 58.4459L283.047 51.1204Z" fill="#F8B79F"/>
<path d="M274.238 46.932C278.354 47.2625 282.236 48.9792 285.249 51.8016L280.586 60.474L271.418 57.305L274.238 46.932Z" fill="#DF98E7"/>
<path d="M266.813 47.4602C266.813 47.4602 261.126 49.0447 261.105 56.6607C261.105 60.8279 265.266 68.333 265.266 68.333L278.109 68.4017C278.109 68.4017 279.995 63.1676 281.125 58.4406C282.255 53.7136 278.643 49.2137 274.26 46.9426L266.813 47.4602Z" fill="#DF98E7"/>
<path d="M280.602 60.474L275.564 56.8561L279.451 64.3876L280.602 60.474Z" fill="#381772"/>
<path d="M270.056 49.8897C271.836 49.6256 272.469 48.432 272.205 46.6521L270.225 36.4375L264.849 37.2984L266.349 47.1485C266.411 47.5724 266.557 47.9797 266.777 48.347C266.998 48.7144 267.288 49.0346 267.633 49.2893C267.977 49.544 268.369 49.7282 268.784 49.8312C269.2 49.9342 269.632 49.9541 270.056 49.8897Z" fill="#F8B79F"/>
<path d="M268.994 38.4814C268.994 38.4814 270.737 43.9268 266.116 45.7806L265.688 42.5324L270.441 38.9409" fill="#32292A"/>
<path d="M265.007 43.2032C268.366 42.8863 270.859 40.198 270.573 37.2033L269.644 27.3901H263.988C261.876 27.5856 259.029 30.3531 259.235 32.2122L260.223 38.3072C260.429 40.5043 262.187 43.4725 265.007 43.2032Z" fill="#F8B79F"/>
<path d="M260.455 34.7843L259.166 38.0694C259.123 38.1483 259.102 38.2378 259.107 38.3279C259.111 38.4179 259.141 38.5048 259.193 38.5786C259.245 38.6525 259.316 38.7102 259.399 38.7453C259.482 38.7804 259.574 38.7915 259.663 38.7772L261.875 38.5712L260.455 34.7843Z" fill="#F8B79F"/>
<path d="M261.58 33.2369C261.58 33.2369 260.376 33.2739 260.418 33.7651C260.418 33.7651 260.46 34.1084 261.511 34.0556C262.562 34.0028 262.821 33.8971 262.879 33.5644C262.937 33.2317 262.14 33.2 261.58 33.2369Z" fill="#312725"/>
<path d="M261.643 35.619C261.679 35.6936 261.697 35.7755 261.695 35.8582C261.693 35.9409 261.672 36.0221 261.633 36.0951C261.595 36.1682 261.539 36.2311 261.472 36.2788C261.404 36.3265 261.326 36.3577 261.244 36.3698C261.163 36.3819 261.079 36.3747 261.001 36.3486C260.922 36.3225 260.851 36.2784 260.792 36.2197C260.734 36.1611 260.69 36.0895 260.665 36.0109C260.639 35.9322 260.632 35.8486 260.645 35.7669C260.626 35.6322 260.661 35.4955 260.74 35.3853C260.82 35.2751 260.939 35.1999 261.073 35.1753C261.206 35.163 261.34 35.2019 261.446 35.2843C261.552 35.3668 261.622 35.4864 261.643 35.619Z" fill="#312725"/>
<path d="M261.258 39.443C261.538 39.4194 261.806 39.3129 262.026 39.1371C262.246 38.9612 262.409 38.7239 262.493 38.4553" stroke="#312725" stroke-width="0.6" stroke-linecap="round" stroke-linejoin="round"/>
<path d="M270.595 46.3512L274.238 46.9322C274.238 46.9322 270.41 53.1275 266.644 51.6433C262.303 49.9268 268.06 46.6681 268.06 46.6681L270.595 46.3512Z" fill="#F8B79F"/>
<path d="M269.068 35.2123C268.251 35.0052 267.504 34.5807 266.908 33.9837C266.312 33.3868 265.889 32.6396 265.683 31.8215L258.158 33.3057C258.158 33.3057 256.991 25.8111 266 24.3957C270.515 23.6879 273.393 25.8692 274.925 28.0558C275.619 29.0963 276.036 30.2968 276.137 31.5435C276.238 32.7903 276.019 34.0421 275.501 35.1806C274.51 37.2724 272.913 39.0173 270.917 40.1876L270.225 36.4376C270.225 36.4376 269.57 35.3444 269.068 35.2123Z" fill="#32292A"/>
<path d="M272.675 34.6735C272.657 35.1341 272.504 35.5794 272.235 35.9536C271.966 36.3277 271.592 36.6142 271.161 36.7772C270.73 36.9401 270.26 36.9724 269.811 36.8698C269.361 36.7673 268.952 36.5346 268.634 36.2007C268.316 35.8669 268.104 35.4467 268.023 34.9927C267.943 34.5388 267.998 34.0712 268.182 33.6484C268.366 33.2256 268.67 32.8664 269.057 32.6157C269.444 32.3649 269.896 32.2338 270.357 32.2387C270.669 32.2448 270.978 32.3128 271.264 32.4388C271.55 32.5648 271.808 32.7462 272.024 32.9726C272.239 33.199 272.408 33.4659 272.52 33.7578C272.631 34.0498 272.684 34.361 272.675 34.6735Z" fill="#F8B79F"/>
<path d="M269.528 35.2386C269.528 35.2386 269.528 33.4851 271.165 33.765" stroke="#312725" stroke-width="0.6" stroke-linecap="round" stroke-linejoin="round"/>
<path d="M284.658 25.0558C284.851 26.197 284.701 27.3698 284.227 28.4258C283.753 29.4819 282.977 30.3737 281.996 30.9885C281.016 31.6033 279.875 31.9135 278.718 31.8799C277.562 31.8463 276.441 31.4704 275.497 30.7997C274.554 30.129 273.831 29.1936 273.42 28.1119C273.008 27.0301 272.926 25.8506 273.185 24.7224C273.444 23.5943 274.031 22.5682 274.873 21.7739C275.715 20.9796 276.773 20.4528 277.914 20.2601C279.444 20.0032 281.013 20.3638 282.278 21.2629C283.542 22.162 284.398 23.5261 284.658 25.0558Z" fill="#32292A"/>
<path d="M336 155.416H0" stroke="#281F27" stroke-width="0.76" stroke-miterlimit="10"/>
</svg>
